{
  "accessors": [
    {
      "bufferView": 2,
      "componentType": 5126,
      "count": 1670,
      "max": [
        0.6809462308883667,
        0.6832358837127686,
        3.909010648727417
      ],
      "min": [
        -0.6809462308883667,
        -0.6832358837127686,
        -0.5840293169021606
      ],
      "type": "VEC3"
    },
    {
      "bufferView": 2,
      "byteOffset": 20040,
      "componentType": 5126,
      "count": 1670,
      "max": [
        1.0,
        1.0,
        0.5326348543167114
      ],
      "min": [
        -1.0,
        -1.0,
        -1.0
      ],
      "type": "VEC3"
    },
    {
      "bufferView": 1,
      "componentType": 5126,
      "count": 1670,
      "max": [
        1.9412376880645752,
        1.3542835712432861
      ],
      "min": [
        -0.5891242623329163,
        -0.5870251059532166
      ],
      "type": "VEC2"
    },
    {
      "bufferView": 0,
      "componentType": 5125,
      "count": 9312,
      "type": "SCALAR"
    },
    {
      "bufferView": 2,
      "byteOffset": 40080,
      "componentType": 5126,
      "count": 111,
      "max": [
        0.21194519102573395,
        0.21194519102573395,
        4.028759002685547
      ],
      "min": [
        -0.21194519102573395,
        -0.21194520592689514,
        3.8174233436584473
      ],
      "type": "VEC3"
    },
    {
      "bufferView": 2,
      "byteOffset": 41412,
      "componentType": 5126,
      "count": 111,
      "max": [
        0.9798239469528198,
        0.9798240065574646,
        1.0
      ],
      "min": [
        -0.9798241853713989,
        -0.9798240065574646,
        -0.4186898171901703
      ],
      "type": "VEC3"
    },
    {
      "bufferView": 1,
      "byteOffset": 13360,
      "componentType": 5126,
      "count": 111,
      "max": [
        0.9737871885299683,
        9.986161231994629
      ],
      "min": [
        0.026212751865386963,
        0.026212751865386963
      ],
      "type": "VEC2"
    },
    {
      "bufferView": 0,
      "byteOffset": 37248,
      "componentType": 5125,
      "count": 432,
      "type": "SCALAR"
    },
    {
      "bufferView": 2,
      "byteOffset": 42744,
      "componentType": 5126,
      "count": 99,
      "max": [
        0.6754051446914673,
        0.6754052639007568,
        2.4518322944641113
      ],
      "min": [
        -0.6754051446914673,
        -0.6754052639007568,
        1.4187506437301636
      ],
      "type": "VEC3"
    },
    {
      "bufferView": 2,
      "byteOffset": 43932,
      "componentType": 5126,
      "count": 99,
      "max": [
        1.0,
        1.0,
        0.0
      ],
      "min": [
        -1.0,
        -1.0,
        0.0
      ],
      "type": "VEC3"
    },
    {
      "bufferView": 1,
      "byteOffset": 14248,
      "componentType": 5126,
      "count": 99,
      "max": [
        0.999839186668396,
        1.0
      ],
      "min": [
        0.0,
        2.9802322387695313e-08
      ],
      "type": "VEC2"
    },
    {
      "bufferView": 0,
      "byteOffset": 38976,
      "componentType": 5125,
      "count": 384,
      "type": "SCALAR"
    },
    {
      "bufferView": 2,
      "byteOffset": 45120,
      "componentType": 5126,
      "count": 1154,
      "max": [
        0.6747187972068787,
        0.6770241260528564,
        2.978076934814453
      ],
      "min": [
        -0.6747187972068787,
        -0.6770241260528564,
        -0.5776517987251282
      ],
      "type": "VEC3"
    },
    {
      "bufferView": 2,
      "byteOffset": 58968,
      "componentType": 5126,
      "count": 1154,
      "max": [
        1.0,
        1.0,
        1.0
      ],
      "min": [
        -1.0,
        -1.0,
        -1.0
      ],
      "type": "VEC3"
    },
    {
      "bufferView": 1,
      "byteOffset": 15040,
      "componentType": 5126,
      "count": 1154,
      "max": [
        0.0,
        0.0
      ],
      "min": [
        0.0,
        0.0
      ],
      "type": "VEC2"
    },
    {
      "bufferView": 0,
      "byteOffset": 40512,
      "componentType": 5125,
      "count": 6912,
      "type": "SCALAR"
    }
  ],
  "asset": {
    "extras": {
      "author": "Bernardo  Lucas (https://sketchfab.com/BernardoLucas)",
      "license": "CC-BY-4.0 (http://creativecommons.org/licenses/by/4.0/)",
      "source": "https://sketchfab.com/3d-models/coke-bottle-58f61a86bdfd49dab68dfbf10eb9b842",
      "title": "Coke Bottle"
    },
    "generator": "Sketchfab-15.18.0",
    "version": "2.0"
  },
  "bufferViews": [
    {
      "buffer": 0,
      "byteLength": 68160,
      "name": "floatBufferViews",
      "target": 34963
    },
    {
      "buffer": 0,
      "byteLength": 24272,
      "byteOffset": 68160,
      "byteStride": 8,
      "name": "floatBufferViews",
      "target": 34962
    },
    {
      "buffer": 0,
      "byteLength": 72816,
      "byteOffset": 92432,
      "byteStride": 12,
      "name": "floatBufferViews",
      "target": 34962
    }
  ],
  "buffers": [
    {
      "byteLength": 165248,
      "uri": "scene.bin"
    }
  ],
  "extensionsUsed": [
    "KHR_materials_transmission"
  ],
  "images": [
    {
      "uri": "textures/garrafa_metallicRoughness.png"
    },
    {
      "uri": "textures/rotulo_baseColor.jpeg"
    }
  ],
  "materials": [
    {
      "alphaMode": "BLEND",
      "doubleSided": true,
      "extensions": {
        "KHR_materials_transmission": {
          "transmissionFactor": 1.0
        }
      },
      "name": "garrafa",
      "pbrMetallicRoughness": {
        "baseColorFactor": [
          1.0,
          1.0,
          1.0,
          0.25
        ],
        "metallicFactor": 0.0,
        "metallicRoughnessTexture": {
          "index": 0
        },
        "roughnessFactor": 0.6140971096292864
      }
    },
    {
      "doubleSided": true,
      "name": "tampa",
      "pbrMetallicRoughness": {
        "baseColorFactor": [
          1.0,
          0.0008121910000000013,
          0.0,
          1.0
        ],
        "metallicFactor": 0.0,
        "roughnessFactor": 0.952
      }
    },
    {
      "doubleSided": true,
      "name": "rotulo",
      "pbrMetallicRoughness": {
        "baseColorTexture": {
          "index": 1
        },
        "metallicFactor": 0.0,
        "roughnessFactor": 0.8211145618000169
      }
    },
    {
      "doubleSided": true,
      "name": "refrigerante",
      "pbrMetallicRoughness": {
        "baseColorFactor": [
          0.012286488356915872,
          0.0030352698354883753,
          0.0027317428519395373,
          1.0
        ],
        "metallicFactor": 0.0,
        "metallicRoughnessTexture": {
          "index": 0
        }
      }
    }
  ],
  "meshes": [
    {
      "name": "garrafa_garrafa_0",
      "primitives": [
        {
          "attributes": {
            "NORMAL": 1,
            "POSITION": 0,
            "TEXCOORD_0": 2
          },
          "indices": 3,
          "material": 0,
          "mode": 4
        }
      ]
    },
    {
      "name": "tampa_tampa_0",
      "primitives": [
        {
          "attributes": {
            "NORMAL": 5,
            "POSITION": 4,
            "TEXCOORD_0": 6
          },
          "indices": 7,
          "material": 1,
          "mode": 4
        }
      ]
    },
    {
      "name": "rotulo_rotulo_0",
      "primitives": [
        {
          "attributes": {
            "NORMAL": 9,
            "POSITION": 8,
            "TEXCOORD_0": 10
          },
          "indices": 11,
          "material": 2,
          "mode": 4
        }
      ]
    },
    {
      "name": "coca_cola_refrigerante_0",
      "primitives": [
        {
          "attributes": {
            "NORMAL": 13,
            "POSITION": 12,
            "TEXCOORD_0": 14
          },
          "indices": 15,
          "material": 3,
          "mode": 4
        }
      ]
    }
  ],
  "nodes": [
    {
      "children": [
        1
      ],
      "matrix": [
        1.0,
        0.0,
        0.0,
        0.0,
        0.0,
        2.220446049250313e-16,
        -1.0,
        0.0,
        0.0,
        1.0,
        2.220446049250313e-16,
        0.0,
        0.0,
        0.0,
        0.0,
        1.0
      ],
      "name": "Sketchfab_model"
    },
    {
      "children": [
        2
      ],
      "matrix": [
        0.009999999776482582,
        0.0,
        0.0,
        0.0,
        0.0,
        0.0,
        0.009999999776482582,
        0.0,
        0.0,
        -0.009999999776482582,
        0.0,
        0.0,
        0.0,
        0.0,
        0.0,
        1.0
      ],
      "name": "9fbde0985eb942ecae26a7465ad4232b.fbx"
    },
    {
      "children": [
        3,
        5,
        7,
        9
      ],
      "name": "RootNode"
    },
    {
      "children": [
        4
      ],
      "matrix": [
        100.0,
        0.0,
        0.0,
        0.0,
        0.0,
        -1.629206793918314e-05,
        -99.99999999999868,
        0.0,
        0.0,
        99.99999999999868,
        -1.629206793918314e-05,
        0.0,
        0.0,
        -181.64266967773438,
        0.0,
        1.0
      ],
      "name": "garrafa"
    },
    {
      "mesh": 0,
      "name": "garrafa_garrafa_0"
    },
    {
      "children": [
        6
      ],
      "matrix": [
        100.0,
        0.0,
        0.0,
        0.0,
        0.0,
        -1.629206793918314e-05,
        -99.99999999999868,
        0.0,
        0.0,
        99.99999999999868,
        -1.629206793918314e-05,
        0.0,
        0.0,
        -181.64266967773438,
        0.0,
        1.0
      ],
      "name": "tampa"
    },
    {
      "mesh": 1,
      "name": "tampa_tampa_0"
    },
    {
      "children": [
        8
      ],
      "matrix": [
        -37.69262645078018,
        3.6234471345627585e-06,
        92.62434325273232,
        0.0,
        92.62434325271747,
        5.8250331831225996e-05,
        37.69262645077186,
        0.0,
        -5.2588198862224544e-05,
        99.99999999998298,
        -2.5312266371813053e-05,
        0.0,
        0.0,
        -181.64266967773438,
        0.0,
        1.0
      ],
      "name": "rotulo"
    },
    {
      "mesh": 2,
      "name": "rotulo_rotulo_0"
    },
    {
      "children": [
        10
      ],
      "matrix": [
        100.0,
        0.0,
        0.0,
        0.0,
        0.0,
        -1.629206793918314e-05,
        -99.99999999999868,
        0.0,
        0.0,
        99.99999999999868,
        -1.629206793918314e-05,
        0.0,
        0.0,
        -181.64266967773438,
        0.0,
        1.0
      ],
      "name": "coca_cola"
    },
    {
      "mesh": 3,
      "name": "coca_cola_refrigerante_0"
    }
  ],
  "samplers": [
    {
      "magFilter": 9729,
      "minFilter": 9987,
      "wrapS": 10497,
      "wrapT": 10497
    }
  ],
  "scene": 0,
  "scenes": [
    {
      "name": "Sketchfab_Scene",
      "nodes": [
        0
      ]
    }
  ],
  "textures": [
    {
      "sampler": 0,
      "source": 0
    },
    {
      "sampler": 0,
      "source": 1
    }
  ]
}
